# Blender 5.1.0
# www.blender.org
mtllib Untitled.mtl
o Character_geo_Geovanni
v 0.002000 1.046167 -0.020692
v 0.002000 1.236385 -0.092563
v 0.002000 1.442603 -0.039566
v 0.002000 1.786402 -0.028148
v 0.002000 1.800000 0.178595
v 0.002000 1.445852 0.151038
v 0.002000 1.310091 0.207504
v 0.002000 1.046167 0.181520
v 0.002000 1.498886 0.105311
v 0.002000 1.498886 0.003414
v 0.002000 1.675992 0.207994
v 0.002000 1.678539 -0.052550
v 0.002000 0.858518 -0.066965
v 0.002000 0.858518 0.206181
v 0.002000 1.580278 0.003466
v 0.002000 1.564759 0.186721
v 0.002000 1.830359 0.075223
v 0.002000 1.546365 0.019286
v 0.002000 1.546365 0.113232
v 0.002000 0.858518 0.070772
v 0.002000 1.727425 0.202114
v 0.002000 1.747267 0.197410
v 0.002000 1.777733 0.292562
v 0.002000 1.797574 0.287858
v -0.194288 0.001023 0.114645
v -0.087139 1.771878 0.178595
v -0.091610 1.771878 -0.028148
v -0.171683 0.001023 -0.034998
v -0.132979 1.046167 0.167089
v -0.132979 1.046167 -0.006389
v -0.134773 1.425315 -0.039566
v -0.134773 1.451836 0.146578
v -0.161059 1.277959 0.196164
v -0.161059 1.283291 -0.092563
v -0.078421 0.001023 0.073449
v -0.109744 0.001023 -0.037885
v -0.176531 1.316820 -0.041064
v -0.192231 1.324149 0.117693
v -0.242863 1.422744 0.125786
v -0.242863 1.422744 -0.013624
v -0.311129 1.066673 -0.067478
v -0.311129 1.111507 0.000109
v -0.350687 1.115853 -0.002473
v -0.350687 1.070741 -0.070478
v -0.323343 0.823429 0.061948
v -0.317929 0.860762 0.109355
v -0.355836 0.868430 0.104587
v -0.362708 0.828348 0.039522
v -0.068792 1.498886 0.105311
v -0.062868 1.498886 0.015120
v -0.081830 1.675992 0.180912
v -0.078110 1.676753 -0.039400
v -0.266591 0.685384 0.119893
v -0.276990 0.769496 0.189350
v -0.313590 0.766380 0.191695
v -0.303191 0.682012 0.121852
v -0.296674 0.737288 0.079240
v -0.283583 0.834029 0.170226
v -0.341578 0.838016 0.168028
v -0.334345 0.740864 0.076421
v -0.159465 0.890816 -0.024992
v -0.166741 0.889743 0.193627
v -0.091984 0.538608 0.047471
v -0.143335 0.538608 0.062701
v -0.163786 0.536372 0.164100
v -0.077632 0.536372 0.191988
v -0.091337 0.447950 0.006353
v -0.142911 0.447950 0.008425
v -0.154229 0.447950 0.123878
v -0.091337 0.447950 0.142321
v -0.109744 0.086400 -0.003574
v -0.146406 0.086400 -0.003574
v -0.146406 0.086400 0.064271
v -0.109744 0.086400 0.064839
v -0.184635 0.001023 0.230988
v -0.064642 0.001023 0.290977
v -0.064642 0.047396 0.267316
v -0.179230 0.039506 0.225862
v -0.067362 1.584358 0.003466
v -0.043865 1.564759 0.169529
v -0.075421 0.001023 0.015240
v -0.185851 0.001023 0.026175
v -0.168409 0.086400 0.022581
v -0.186571 0.447950 0.061485
v -0.188022 0.538608 0.093945
v -0.191977 0.889721 0.064495
v -0.157723 1.046167 0.049535
v -0.182473 1.305318 0.060368
v -0.204439 1.314830 0.036979
v -0.311129 1.089090 -0.033685
v -0.297029 0.833996 0.087294
v -0.304933 0.770550 0.129381
v -0.266591 0.706074 0.172152
v -0.303191 0.702830 0.174304
v -0.341996 0.778867 0.132218
v -0.363572 0.850173 0.085623
v -0.350687 1.093297 -0.036475
v -0.242863 1.422744 0.056081
v -0.134773 1.478002 0.051943
v -0.097496 1.498886 0.054362
v -0.083244 1.584358 0.083135
v -0.126539 1.675992 0.087915
v -0.091610 1.800000 0.075223
v -0.059876 1.546365 0.019286
v -0.068281 1.546365 0.078642
v -0.046078 1.545215 0.113858
v -0.092215 0.086400 0.022581
v -0.062900 0.447950 0.066546
v -0.053075 0.531392 0.110243
v -0.158414 0.646340 0.007632
v -0.060110 0.645792 0.007081
v -0.035599 0.642185 0.078246
v -0.051635 0.644697 0.197850
v -0.176515 0.644675 0.162509
v -0.197014 0.645792 0.066958
v -0.179530 0.043200 0.096886
v -0.188288 0.020777 0.228425
v -0.064642 0.020777 0.288414
v -0.074031 0.043200 0.096886
v -0.075927 0.043200 0.018910
v -0.109744 0.043200 -0.032934
v -0.167362 0.043200 -0.025123
v -0.179530 0.043200 0.024378
v -0.082892 1.721801 0.180448
v -0.119553 1.700794 0.085377
v -0.083741 1.737143 0.180078
v -0.105223 1.725722 0.270897
v -0.106073 1.741064 0.270526
v 0.198288 0.001023 0.114645
v 0.091139 1.771878 0.178595
v 0.095610 1.771878 -0.028148
v 0.175683 0.001023 -0.034998
v 0.136979 1.046167 0.167089
v 0.136979 1.046167 -0.006389
v 0.138773 1.425315 -0.039566
v 0.138773 1.451836 0.146578
v 0.165059 1.277959 0.196164
v 0.165059 1.283291 -0.092563
v 0.082421 0.001023 0.073449
v 0.113744 0.001023 -0.037885
v 0.180531 1.316820 -0.041064
v 0.196231 1.324149 0.117693
v 0.246863 1.422744 0.125786
v 0.246863 1.422744 -0.013624
v 0.315129 1.066673 -0.067478
v 0.315129 1.111507 0.000109
v 0.354687 1.115853 -0.002473
v 0.354687 1.070741 -0.070478
v 0.327343 0.823429 0.061948
v 0.321929 0.860762 0.109355
v 0.359836 0.868430 0.104587
v 0.366708 0.828348 0.039522
v 0.072792 1.498886 0.105311
v 0.066868 1.498886 0.015120
v 0.085830 1.675992 0.180912
v 0.082110 1.676753 -0.039400
v 0.270591 0.685384 0.119893
v 0.280990 0.769496 0.189350
v 0.317590 0.766380 0.191695
v 0.307191 0.682012 0.121852
v 0.300674 0.737288 0.079240
v 0.287583 0.834029 0.170226
v 0.345578 0.838016 0.168028
v 0.338345 0.740864 0.076421
v 0.163465 0.890816 -0.024992
v 0.170741 0.889743 0.193627
v 0.095984 0.538608 0.047471
v 0.147335 0.538608 0.062701
v 0.167786 0.536372 0.164100
v 0.081632 0.536372 0.191988
v 0.095337 0.447950 0.006353
v 0.146911 0.447950 0.008425
v 0.158229 0.447950 0.123878
v 0.095337 0.447950 0.142321
v 0.113744 0.086400 -0.003574
v 0.150406 0.086400 -0.003574
v 0.150406 0.086400 0.064271
v 0.113744 0.086400 0.064839
v 0.188635 0.001023 0.230988
v 0.068642 0.001023 0.290977
v 0.068642 0.047396 0.267316
v 0.183230 0.039506 0.225862
v 0.071362 1.584358 0.003466
v 0.047865 1.564759 0.169529
v 0.079421 0.001023 0.015240
v 0.185851 0.001023 0.026175
v 0.172409 0.086400 0.022581
v 0.190571 0.447950 0.061485
v 0.192022 0.538608 0.093945
v 0.195977 0.889721 0.064495
v 0.161723 1.046167 0.049535
v 0.186473 1.305318 0.060368
v 0.208439 1.314830 0.036979
v 0.315129 1.089090 -0.033685
v 0.301029 0.833996 0.087294
v 0.308933 0.770550 0.129381
v 0.270591 0.706074 0.172152
v 0.307191 0.702830 0.174304
v 0.345996 0.778867 0.132218
v 0.367572 0.850173 0.085623
v 0.354687 1.093297 -0.036475
v 0.246863 1.422744 0.056081
v 0.138773 1.478002 0.051943
v 0.101496 1.498886 0.054362
v 0.087244 1.584358 0.083135
v 0.130539 1.675992 0.087915
v 0.095610 1.800000 0.075223
v 0.063876 1.546365 0.019286
v 0.072281 1.546365 0.078642
v 0.050078 1.545215 0.113858
v 0.096215 0.086400 0.022581
v 0.066900 0.447950 0.066546
v 0.057075 0.531392 0.110243
v 0.162414 0.646340 0.007632
v 0.064110 0.645792 0.007081
v 0.039599 0.642185 0.078246
v 0.055635 0.644697 0.197850
v 0.180515 0.644675 0.162509
v 0.201014 0.645792 0.066958
v 0.183530 0.043200 0.096886
v 0.192288 0.020777 0.228425
v 0.068642 0.020777 0.288414
v 0.078031 0.043200 0.096886
v 0.079927 0.043200 0.018910
v 0.113744 0.043200 -0.032934
v 0.171362 0.043200 -0.025123
v 0.183530 0.043200 0.024378
v 0.086892 1.721801 0.180448
v 0.123553 1.700794 0.085377
v 0.087741 1.737143 0.180078
v 0.109223 1.725722 0.270897
v 0.110073 1.741064 0.270526
vn 0.1048 -0.9247 0.3661
vn 0.1040 -0.9245 0.3666
vn 0.1043 -0.9246 0.3664
vn 0.1035 -0.9245 0.3669
vn -0.9267 0.1709 -0.3346
vn -0.9099 0.1876 -0.3699
vn -0.9220 0.1759 -0.3450
vn -0.8960 0.2002 -0.3964
vn -0.4524 0.7729 -0.4450
vn -0.4508 0.7769 -0.4396
vn -0.4508 0.7768 -0.4397
vn -0.4327 0.8167 -0.3819
vn -0.9122 -0.0702 -0.4036
vn -0.9790 -0.1518 -0.1364
vn -0.9605 -0.1186 -0.2517
vn -0.9808 -0.1578 -0.1146
vn -0.0000 -1.0000 -0.0000
vn -0.1044 0.1358 -0.9852
vn -0.1638 0.1970 -0.9666
vn -0.1717 0.2052 -0.9635
vn -0.2004 0.2346 -0.9512
vn -0.1008 -0.3503 -0.9312
vn -0.1001 -0.3508 -0.9311
vn -0.0995 -0.3511 -0.9310
vn -0.0986 -0.3517 -0.9309
vn -0.0451 0.3566 -0.9332
vn 0.0319 0.2859 -0.9577
vn 0.0428 0.2757 -0.9603
vn 0.0714 0.2483 -0.9661
vn -0.1420 0.6008 -0.7867
vn -0.0950 0.6352 -0.7665
vn -0.0926 0.6369 -0.7654
vn -0.0815 0.6446 -0.7601
vn -0.2208 0.9210 -0.3211
vn 0.0041 0.6561 0.7546
vn -0.0000 0.6565 0.7544
vn 0.0031 0.6554 0.7553
vn -0.0000 0.6530 0.7574
vn -0.0783 0.3290 0.9411
vn -0.0734 -0.1142 0.9907
vn -0.0407 0.1757 0.9836
vn -0.0684 0.1561 0.9854
vn -0.0739 0.1522 0.9856
vn -0.1054 0.1296 0.9860
vn -0.9496 -0.3004 -0.0897
vn -0.5803 -0.8047 -0.1252
vn -0.9304 -0.3542 -0.0947
vn -0.2798 -0.9520 -0.1243
vn -0.8326 0.2646 0.4865
vn -0.4827 0.0191 0.8756
vn -0.6800 0.1433 0.7191
vn -0.1462 -0.1552 0.9770
vn -0.4552 0.8904 -0.0000
vn -0.2423 0.9010 -0.3598
vn -0.3047 0.9140 -0.2679
vn -0.1390 0.8582 -0.4941
vn -0.2345 0.1036 -0.9666
vn 0.8270 -0.4793 0.2939
vn -0.2902 -0.3029 0.9078
vn -0.9468 0.3146 -0.0684
vn -0.1022 0.1890 -0.9766
vn -0.0989 0.1868 -0.9774
vn -0.0118 0.1269 -0.9918
vn 0.0817 0.0611 -0.9948
vn 0.9319 -0.1600 -0.3254
vn -0.0252 0.3987 0.9168
vn -0.9989 0.0364 -0.0310
vn 0.2297 -0.4396 -0.8683
vn -0.3171 -0.1905 0.9290
vn -0.9033 -0.3236 -0.2818
vn -0.0847 -0.4625 -0.8826
vn -0.2789 0.0595 0.9585
vn -0.9771 0.0772 -0.1981
vn -0.9119 0.2215 -0.3455
vn -0.9720 0.0937 -0.2153
vn 0.8986 0.4190 -0.1300
vn 0.8960 0.4196 -0.1455
vn 0.8946 0.4198 -0.1531
vn 0.8921 0.4202 -0.1663
vn -0.0148 0.3084 0.9511
vn 0.0086 0.2990 0.9542
vn -0.0050 0.3045 0.9525
vn 0.0369 0.2874 0.9571
vn -0.9119 -0.3815 0.1514
vn -0.9137 -0.3812 0.1408
vn -0.9131 -0.3813 0.1444
vn -0.9149 -0.3809 0.1340
vn 0.0013 -0.6106 -0.7919
vn 0.0044 -0.6109 -0.7917
vn 0.0107 -0.6113 -0.7913
vn 0.0140 -0.6115 -0.7911
vn 0.7066 -0.4502 -0.5459
vn 0.9758 0.1786 -0.1264
vn 0.9493 -0.0624 -0.3081
vn 0.9566 0.2893 -0.0343
vn 0.1322 0.9051 0.4042
vn 0.0687 0.9205 0.3846
vn 0.0938 0.9150 0.3925
vn 0.0492 0.9244 0.3782
vn -0.9682 -0.2328 0.0921
vn -0.9628 -0.2590 0.0769
vn -0.9597 -0.2724 0.0690
vn -0.9568 -0.2840 0.0622
vn 0.4635 -0.2125 -0.8602
vn 0.3966 -0.2095 -0.8938
vn 0.1692 -0.1920 -0.9667
vn 0.0564 -0.1797 -0.9821
vn -0.0977 -0.3976 -0.9123
vn -0.6957 -0.3229 -0.6417
vn -0.2870 -0.0013 0.9579
vn -0.1472 0.4599 -0.8757
vn -0.6538 0.3210 -0.6852
vn -0.2678 -0.4316 0.8614
vn -0.0235 0.0310 -0.9992
vn -0.7696 0.0293 -0.6379
vn -0.1845 -0.1805 0.9661
vn -0.0706 0.5190 -0.8518
vn -0.8365 0.3969 -0.3778
vn -0.3557 0.4872 0.7976
vn -0.8215 0.5699 0.0182
vn -0.0126 -0.4038 -0.9148
vn -0.9391 -0.3019 -0.1641
vn -0.0380 -0.9586 0.2822
vn -0.8501 0.5006 0.1638
vn -0.8825 -0.0945 0.4608
vn -0.9005 -0.2099 0.3808
vn -0.9638 -0.0628 0.2589
vn -0.9532 0.2328 0.1931
vn -0.9790 -0.1188 0.1655
vn -0.5437 -0.8204 0.1770
vn -0.6961 -0.7088 0.1144
vn -0.8365 -0.5467 0.0372
vn -0.8501 -0.5259 0.0281
vn 0.8822 -0.4695 0.0361
vn 0.9605 0.1267 0.2479
vn 0.9622 -0.2233 -0.1559
vn 0.9795 0.1241 -0.1589
vn 0.9867 -0.0275 -0.1600
vn 0.7326 0.6702 -0.1190
vn 0.8784 0.2538 -0.4049
vn 0.9020 0.1059 -0.4185
vn 0.9004 0.1224 -0.4174
vn 0.9057 -0.0327 -0.4226
vn 0.0788 -0.2488 0.9653
vn 0.0818 -0.2499 0.9648
vn 0.0802 -0.2493 0.9651
vn 0.0831 -0.2504 0.9646
vn -0.8968 -0.2244 0.3812
vn -0.8956 -0.2337 0.3787
vn -0.8947 -0.2395 0.3770
vn -0.8933 -0.2486 0.3744
vn -0.9545 0.1212 0.2726
vn -0.9663 -0.0696 0.2477
vn -0.9637 -0.1170 0.2400
vn -0.9620 -0.1364 0.2366
vn -0.9933 0.0767 0.0860
vn -0.9363 0.3432 -0.0746
vn -0.2967 0.9204 0.2545
vn -0.3471 0.9203 0.1805
vn -0.3814 0.9156 0.1268
vn -0.4837 0.8317 0.2725
vn -0.4653 0.8514 0.2421
vn -0.4641 0.8526 0.2401
vn -0.4618 0.8549 0.2364
vn -0.7995 -0.5096 0.3179
vn -0.8556 -0.3714 0.3605
vn -0.9175 0.0934 0.3866
vn -0.9214 0.0645 0.3831
vn -0.9495 0.1497 0.2757
vn -0.2938 0.9181 0.2661
vn -0.0900 0.2084 -0.9739
vn -0.8418 0.3956 -0.3674
vn -0.8238 0.2844 0.4905
vn 0.0069 -0.1745 0.9846
vn -0.0000 -0.1745 0.9847
vn 0.9652 -0.1675 0.2008
vn 0.9031 -0.2938 0.3131
vn 0.8355 0.5386 0.1086
vn 0.9249 -0.1215 0.3602
vn 0.8825 -0.0232 -0.4698
vn 0.8671 0.1805 -0.4643
vn 0.8419 -0.3319 -0.4255
vn 0.7840 0.3451 -0.5161
vn 0.7903 0.6099 -0.0586
vn -0.2887 -0.2385 -0.9272
vn -0.1442 -0.1857 -0.9720
vn -0.2389 -0.2207 -0.9456
vn -0.0063 -0.1323 -0.9912
vn 0.9622 -0.2459 -0.1171
vn 0.9762 -0.2072 0.0634
vn -0.1670 -0.0615 0.9840
vn -0.9797 0.0180 0.1995
vn -0.9019 -0.0236 -0.4312
vn -0.9829 0.1828 0.0201
vn -0.4405 0.0753 0.8946
vn 0.9980 -0.0082 -0.0632
vn 0.9966 -0.0601 -0.0563
vn 0.9973 -0.0433 -0.0586
vn 0.9988 -0.0486 0.0081
vn 0.8372 0.0606 -0.5435
vn -0.0877 0.1768 -0.9803
vn -0.9628 0.1434 -0.2291
vn -0.9716 0.2310 -0.0509
vn -0.2411 0.1328 0.9614
vn -0.9635 0.1761 0.2016
vn -0.1434 0.2184 0.9653
vn -0.9631 0.1928 0.1879
vn -0.9781 0.0738 -0.1945
vn -0.0900 0.1665 -0.9819
vn 0.2101 -0.9291 0.3044
vn -0.2600 0.9157 -0.3066
vn -0.9697 -0.0594 -0.2368
vn 0.9965 -0.0617 -0.0561
vn -0.8267 0.3245 -0.4596
vn -0.1148 0.9660 0.2318
vn -0.1048 -0.9247 0.3661
vn -0.1043 -0.9246 0.3664
vn -0.1040 -0.9245 0.3666
vn -0.1035 -0.9245 0.3669
vn 0.9267 0.1709 -0.3346
vn 0.9220 0.1759 -0.3450
vn 0.9099 0.1876 -0.3699
vn 0.8960 0.2002 -0.3964
vn 0.4524 0.7729 -0.4450
vn 0.4508 0.7768 -0.4397
vn 0.4508 0.7769 -0.4396
vn 0.4327 0.8167 -0.3819
vn 0.9122 -0.0702 -0.4036
vn 0.9605 -0.1186 -0.2517
vn 0.9790 -0.1518 -0.1364
vn 0.9808 -0.1578 -0.1146
vn 0.1044 0.1358 -0.9852
vn 0.1717 0.2052 -0.9635
vn 0.1638 0.1970 -0.9666
vn 0.2004 0.2346 -0.9512
vn 0.1008 -0.3503 -0.9312
vn 0.0995 -0.3511 -0.9310
vn 0.1001 -0.3508 -0.9311
vn 0.0986 -0.3517 -0.9309
vn 0.0451 0.3566 -0.9332
vn -0.0428 0.2757 -0.9603
vn -0.0319 0.2859 -0.9577
vn -0.0714 0.2483 -0.9661
vn 0.1420 0.6008 -0.7867
vn 0.0926 0.6369 -0.7654
vn 0.0950 0.6352 -0.7665
vn 0.0815 0.6446 -0.7601
vn 0.2208 0.9210 -0.3211
vn -0.0041 0.6561 0.7546
vn -0.0028 0.6551 0.7555
vn 0.0783 0.3290 0.9411
vn 0.0734 -0.1142 0.9907
vn 0.0407 0.1757 0.9836
vn 0.0739 0.1521 0.9856
vn 0.0684 0.1561 0.9854
vn 0.1054 0.1296 0.9860
vn 0.9496 -0.3004 -0.0897
vn 0.9304 -0.3542 -0.0947
vn 0.5803 -0.8047 -0.1252
vn 0.2798 -0.9520 -0.1243
vn 0.8326 0.2646 0.4865
vn 0.6800 0.1433 0.7191
vn 0.4827 0.0191 0.8756
vn 0.1462 -0.1552 0.9770
vn 0.4552 0.8904 -0.0000
vn 0.3047 0.9140 -0.2679
vn 0.2423 0.9010 -0.3598
vn 0.1390 0.8582 -0.4941
vn 0.2345 0.1036 -0.9666
vn -0.8270 -0.4793 0.2939
vn 0.2902 -0.3029 0.9078
vn 0.9468 0.3146 -0.0684
vn 0.1022 0.1890 -0.9766
vn 0.0118 0.1269 -0.9918
vn 0.0989 0.1868 -0.9774
vn -0.0817 0.0611 -0.9948
vn -0.9319 -0.1600 -0.3254
vn 0.0252 0.3987 0.9168
vn 0.9989 0.0364 -0.0310
vn -0.2297 -0.4396 -0.8683
vn 0.3171 -0.1905 0.9290
vn 0.9033 -0.3236 -0.2818
vn 0.0847 -0.4625 -0.8826
vn 0.2789 0.0595 0.9585
vn 0.9771 0.0772 -0.1981
vn 0.9721 0.0937 -0.2152
vn 0.9119 0.2215 -0.3455
vn -0.8986 0.4190 -0.1300
vn -0.8946 0.4198 -0.1531
vn -0.8960 0.4196 -0.1455
vn -0.8921 0.4202 -0.1663
vn 0.0148 0.3084 0.9511
vn 0.0050 0.3045 0.9525
vn -0.0086 0.2990 0.9542
vn -0.0369 0.2874 0.9571
vn 0.9119 -0.3815 0.1514
vn 0.9131 -0.3813 0.1447
vn 0.9137 -0.3812 0.1408
vn 0.9149 -0.3809 0.1340
vn -0.0013 -0.6106 -0.7919
vn -0.0107 -0.6113 -0.7913
vn -0.0044 -0.6109 -0.7917
vn -0.0140 -0.6115 -0.7911
vn -0.7066 -0.4502 -0.5459
vn -0.9493 -0.0624 -0.3081
vn -0.9758 0.1786 -0.1263
vn -0.9566 0.2893 -0.0343
vn -0.1322 0.9051 0.4042
vn -0.0938 0.9149 0.3925
vn -0.0687 0.9205 0.3846
vn -0.0492 0.9244 0.3782
vn 0.9682 -0.2328 0.0921
vn 0.9597 -0.2724 0.0690
vn 0.9628 -0.2590 0.0769
vn 0.9568 -0.2840 0.0622
vn -0.4635 -0.2125 -0.8602
vn -0.1692 -0.1920 -0.9667
vn -0.3966 -0.2095 -0.8938
vn -0.0564 -0.1797 -0.9821
vn 0.0977 -0.3976 -0.9123
vn 0.6957 -0.3229 -0.6417
vn 0.2870 -0.0013 0.9579
vn 0.1472 0.4599 -0.8757
vn 0.6538 0.3210 -0.6852
vn 0.2678 -0.4316 0.8614
vn 0.0235 0.0310 -0.9992
vn 0.7696 0.0293 -0.6379
vn 0.1845 -0.1805 0.9661
vn 0.0706 0.5190 -0.8518
vn 0.8365 0.3969 -0.3778
vn 0.3557 0.4872 0.7976
vn 0.8215 0.5699 0.0182
vn 0.0126 -0.4038 -0.9148
vn 0.9391 -0.3019 -0.1641
vn 0.0380 -0.9586 0.2822
vn 0.8501 0.5006 0.1638
vn 0.8825 -0.0945 0.4608
vn 0.9005 -0.2099 0.3808
vn 0.9638 -0.0628 0.2589
vn 0.9532 0.2328 0.1931
vn 0.9790 -0.1188 0.1655
vn 0.5437 -0.8204 0.1770
vn 0.8365 -0.5467 0.0372
vn 0.6961 -0.7088 0.1144
vn 0.8501 -0.5259 0.0281
vn -0.8822 -0.4695 0.0361
vn -0.9605 0.1267 0.2479
vn -0.9622 -0.2233 -0.1559
vn -0.9867 -0.0275 -0.1600
vn -0.9795 0.1241 -0.1589
vn -0.7326 0.6702 -0.1190
vn -0.8784 0.2538 -0.4049
vn -0.9004 0.1223 -0.4174
vn -0.9020 0.1059 -0.4185
vn -0.9057 -0.0327 -0.4226
vn -0.0788 -0.2488 0.9653
vn -0.0802 -0.2493 0.9651
vn -0.0818 -0.2499 0.9648
vn -0.0831 -0.2504 0.9646
vn 0.8968 -0.2244 0.3812
vn 0.8947 -0.2395 0.3770
vn 0.8956 -0.2337 0.3787
vn 0.8933 -0.2486 0.3744
vn 0.9545 0.1212 0.2726
vn 0.9637 -0.1170 0.2400
vn 0.9663 -0.0696 0.2477
vn 0.9620 -0.1364 0.2366
vn 0.9933 0.0767 0.0860
vn 0.9363 0.3432 -0.0746
vn 0.2967 0.9204 0.2545
vn 0.3814 0.9156 0.1268
vn 0.3471 0.9203 0.1805
vn 0.4837 0.8317 0.2725
vn 0.4641 0.8526 0.2401
vn 0.4653 0.8514 0.2421
vn 0.4618 0.8549 0.2364
vn 0.7995 -0.5096 0.3179
vn 0.8556 -0.3714 0.3605
vn 0.9175 0.0934 0.3865
vn 0.9495 0.1496 0.2757
vn 0.9214 0.0645 0.3831
vn 0.2938 0.9181 0.2661
vn 0.0900 0.2084 -0.9739
vn 0.8418 0.3956 -0.3674
vn 0.8238 0.2844 0.4905
vn -0.0069 -0.1745 0.9846
vn -0.9652 -0.1675 0.2008
vn -0.9031 -0.2938 0.3131
vn -0.8355 0.5386 0.1086
vn -0.9249 -0.1215 0.3602
vn -0.8825 -0.0232 -0.4698
vn -0.8671 0.1805 -0.4643
vn -0.8419 -0.3319 -0.4255
vn -0.7840 0.3451 -0.5161
vn -0.7903 0.6099 -0.0586
vn 0.2887 -0.2385 -0.9272
vn 0.2389 -0.2207 -0.9456
vn 0.1442 -0.1857 -0.9720
vn 0.0063 -0.1323 -0.9912
vn -0.9622 -0.2459 -0.1171
vn -0.9762 -0.2072 0.0634
vn 0.1670 -0.0615 0.9840
vn 0.9797 0.0180 0.1995
vn 0.9019 -0.0236 -0.4312
vn 0.9829 0.1828 0.0201
vn 0.4405 0.0753 0.8946
vn -0.9980 -0.0082 -0.0632
vn -0.9973 -0.0433 -0.0585
vn -0.9966 -0.0600 -0.0563
vn -0.9988 -0.0486 0.0081
vn -0.8372 0.0606 -0.5435
vn 0.0877 0.1768 -0.9803
vn 0.9757 0.0957 -0.1969
vn 0.9806 0.1810 -0.0758
vn 0.2411 0.1328 0.9614
vn 0.9635 0.1761 0.2016
vn 0.1434 0.2184 0.9653
vn 0.9631 0.1928 0.1879
vn 0.9781 0.0738 -0.1945
vn 0.0900 0.1665 -0.9819
vn -0.2101 -0.9291 0.3044
vn 0.2600 0.9157 -0.3066
vn 0.9697 -0.0594 -0.2368
vn -0.9965 -0.0617 -0.0561
vn 0.8267 0.3245 -0.4596
vn 0.1148 0.9660 0.2318
vt 0.125000 0.170000
vt 0.250000 0.170000
vt 0.125000 0.200000
vt 0.250000 0.200000
vt 0.250000 0.100000
vt 0.250000 0.125000
vt 0.125000 0.100000
vt 0.125000 0.125000
vt 0.125000 0.210000
vt 0.250000 0.210000
vt 0.375000 0.875000
vt 0.375000 0.750000
vt 0.500000 0.875000
vt 0.375000 0.625000
vt 0.500000 0.625000
vt 0.375000 0.650000
vt 0.500000 0.650000
vt 0.375000 0.580000
vt 0.500000 0.580000
vt 0.375000 0.550000
vt 0.500000 0.550000
vt 0.500000 0.540000
vt 0.375000 0.540000
vt 0.375000 0.375000
vt 0.500000 0.375000
vt 0.500000 0.500000
vt 0.375000 0.500000
vt 0.375000 0.200000
vt 0.500000 0.200000
vt 0.375000 0.210000
vt 0.500000 0.210000
vt 0.375000 0.170000
vt 0.500000 0.170000
vt 0.375000 0.125000
vt 0.500000 0.125000
vt 0.375000 0.100000
vt 0.500000 0.100000
vt 0.375000 0.214800
vt 0.500000 0.214800
vt 0.500000 0.226000
vt 0.375000 0.226000
vt 0.125000 0.214800
vt 0.250000 0.214800
vt 0.250000 0.226000
vt 0.121502 0.226381
vt 0.375000 0.535200
vt 0.373976 0.523866
vt 0.500398 0.524009
vt 0.500000 0.535200
vt 0.375000 0.230800
vt 0.500000 0.230800
vt 0.250020 0.230607
vt 0.500000 0.690000
vt 0.375000 0.690000
vt 0.375000 0.670000
vt 0.500000 0.670000
vt 0.125000 0.060000
vt 0.250000 0.060000
vt 0.250000 0.080000
vt 0.125000 0.080000
vt 0.375000 0.080000
vt 0.375000 0.060000
vt 0.500000 0.060000
vt 0.500000 0.080000
vt 0.375000 0.714000
vt 0.500000 0.714000
vt 0.250000 0.036000
vt 0.125000 0.036000
vt 0.375000 0.036000
vt 0.500000 0.036000
vt 0.500000 0.739200
vt 0.375000 0.739200
vt 0.125000 0.010800
vt 0.250000 0.010800
vt 0.375000 0.010800
vt 0.500000 0.010800
vt 0.500000 0.744600
vt 0.375000 0.744600
vt 0.250000 0.005400
vt 0.125000 0.005400
vt 0.375000 0.005400
vt 0.500000 0.005400
vt 0.375000 0.000000
vt 0.500000 0.000000
vt 0.375000 0.537600
vt 0.500000 0.537600
vt 0.125000 0.212400
vt 0.250000 0.212400
vt 0.375000 0.212400
vt 0.500000 0.212400
vt 0.500000 1.000000
vt 0.375000 0.250000
vt 0.500000 0.250000
vt 0.500000 0.505400
vt 0.500000 0.750000
vt 0.375000 1.000000
vt 0.250000 0.000000
vt 0.125000 0.000000
vt 0.375000 0.234640
vt 0.500000 0.234640
vt 0.250000 0.250000
vt 0.125000 0.250000
s 1
usemtl lambert2.002
f 53/1/1 93/2/2 56/3/3
f 56/3/3 93/2/2 94/4/4
f 86/5/5 87/6/6 61/7/7
f 61/7/7 87/6/6 30/8/8
f 31/3/9 99/4/10 50/9/11
f 50/9/11 99/4/10 100/10/12
f 87/6/13 88/2/14 30/8/15
f 30/8/15 88/2/14 34/1/16
f 82/11/17 28/12/17 81/13/17
f 30/14/18 1/15/19 61/16/20
f 61/16/20 1/15/19 13/17/21
f 34/18/22 2/19/23 30/14/24
f 30/14/24 2/19/23 1/15/25
f 31/20/26 3/21/27 34/18/28
f 34/18/28 3/21/27 2/19/29
f 10/22/30 3/21/31 50/23/32
f 50/23/32 3/21/31 31/20/33
f 103/24/34 17/25/34 4/26/34 27/27/34
f 32/28/35 6/29/36 49/30/37
f 49/30/37 6/29/36 9/31/38
f 32/28/39 33/32/39 7/33/39 6/29/39
f 33/32/40 29/34/40 8/35/40 7/33/40
f 62/36/41 14/37/42 29/34/43
f 29/34/43 14/37/42 8/35/44
f 34/1/45 88/2/46 37/1/47
f 37/1/47 88/2/46 89/2/48
f 33/32/49 32/28/50 38/32/51
f 38/32/51 32/28/50 39/28/52
f 98/4/53 99/4/54 40/3/55
f 40/3/55 99/4/54 31/3/56
f 31/3/57 37/1/57 40/3/57
f 37/1/58 89/2/58 90/2/58 41/1/58
f 38/32/59 39/28/59 43/28/59 42/32/59
f 97/4/60 98/4/60 40/3/60 44/3/60
f 40/3/61 37/1/62 44/3/63
f 44/3/63 37/1/62 41/1/64
f 41/1/65 90/2/65 91/2/65 45/1/65
f 42/32/66 43/28/66 47/28/66 46/32/66
f 96/4/67 97/4/67 44/3/67 48/3/67
f 48/3/68 44/3/68 41/1/68 45/1/68
f 80/38/69 16/39/69 11/40/69 51/41/69
f 79/42/70 101/43/70 102/44/70 52/45/70
f 79/46/71 52/47/71 12/48/71 15/49/71
f 124/50/72 51/41/72 11/40/72 21/51/72
f 52/45/73 102/44/74 125/52/75
f 57/1/76 92/2/77 53/1/78
f 53/1/78 92/2/77 93/2/79
f 59/28/80 55/28/81 58/32/82
f 58/32/82 55/28/81 54/32/83
f 94/4/84 95/4/85 56/3/86
f 56/3/86 95/4/85 60/3/87
f 60/3/88 57/1/89 56/3/90
f 56/3/90 57/1/89 53/1/91
f 91/2/92 92/2/93 45/1/94
f 45/1/94 92/2/93 57/1/95
f 47/28/96 59/28/97 46/32/98
f 46/32/98 59/28/97 58/32/99
f 96/4/100 48/3/101 95/4/102
f 95/4/102 48/3/101 60/3/103
f 48/3/104 45/1/105 60/3/106
f 60/3/106 45/1/105 57/1/107
f 63/53/108 64/54/108 110/55/108 111/56/108
f 64/57/109 85/58/109 115/59/109 110/60/109
f 114/61/110 65/62/110 66/63/110 113/64/110
f 68/65/111 64/54/111 63/53/111 67/66/111
f 84/67/112 85/58/112 64/57/112 68/68/112
f 65/62/113 69/69/113 70/70/113 66/63/113
f 71/71/114 72/72/114 68/65/114 67/66/114
f 68/68/115 72/73/115 83/74/115 84/67/115
f 69/69/116 73/75/116 74/76/116 70/70/116
f 72/72/117 71/71/117 121/77/117 122/78/117
f 123/79/118 83/74/118 72/73/118 122/80/118
f 78/75/119 117/81/119 118/82/119 77/76/119
f 25/83/17 76/84/17 75/83/17
f 73/75/120 116/81/120 117/81/120 78/75/120
f 104/85/121 79/46/121 15/49/121 18/86/121
f 104/87/122 105/88/122 101/43/122 79/42/122
f 80/38/123 106/89/123 19/90/123 16/39/123
f 82/11/17 81/13/17 35/91/17
f 73/75/124 83/74/124 123/79/124 116/81/124
f 84/67/125 83/74/125 73/75/125 69/69/125
f 69/69/126 65/62/126 85/58/126 84/67/126
f 85/58/127 65/62/127 114/61/127 115/59/127
f 29/34/128 87/6/128 86/5/128 62/36/128
f 33/32/129 88/2/129 87/6/129 29/34/129
f 89/2/130 88/2/131 38/32/132
f 38/32/132 88/2/131 33/32/133
f 42/32/134 90/2/134 89/2/134 38/32/134
f 46/32/135 91/2/135 90/2/135 42/32/135
f 92/2/136 91/2/137 58/32/138
f 58/32/138 91/2/137 46/32/139
f 93/2/140 92/2/141 54/32/142
f 54/32/142 92/2/141 58/32/143
f 93/2/144 54/32/145 94/4/146
f 94/4/146 54/32/145 55/28/147
f 59/28/148 95/4/149 55/28/150
f 55/28/150 95/4/149 94/4/151
f 47/28/152 96/4/153 59/28/154
f 59/28/154 96/4/153 95/4/155
f 47/28/156 43/28/156 97/4/156 96/4/156
f 43/28/157 39/28/157 98/4/157 97/4/157
f 32/28/158 99/4/159 39/28/160
f 39/28/160 99/4/159 98/4/53
f 100/10/161 99/4/162 49/30/163
f 49/30/163 99/4/162 32/28/164
f 101/43/165 105/88/165 106/89/165 80/38/165
f 51/41/166 102/44/166 101/43/166 80/38/166
f 51/41/167 124/50/168 125/52/169 102/44/167
f 103/24/170 26/92/170 5/93/170 17/25/170
f 104/85/171 18/86/171 10/22/171 50/23/171
f 104/87/172 50/9/172 100/10/172 105/88/172
f 49/30/173 106/89/173 105/88/173 100/10/173
f 106/89/174 49/30/174 9/31/175 19/90/175
f 109/25/176 112/25/176 113/64/176 66/63/176
f 109/25/177 66/63/177 70/70/177 108/25/177
f 74/76/178 119/94/178 120/15/178 107/25/178
f 108/25/179 70/70/179 74/76/179 107/25/179
f 107/25/180 71/71/180 67/66/180 108/25/180
f 108/25/181 67/66/181 63/53/181 109/25/181
f 63/53/182 111/56/182 112/25/182 109/25/182
f 36/95/17 81/13/17 28/12/17
f 120/15/183 121/77/183 71/71/183 107/25/183
f 77/76/184 119/94/184 74/76/184
f 25/96/17 82/11/17 35/91/17
f 13/17/185 111/56/186 61/16/187
f 61/16/187 111/56/186 110/55/188
f 20/25/189 112/25/189 111/56/189 13/17/189
f 14/37/190 113/64/190 112/25/190 20/25/190
f 62/36/191 114/61/191 113/64/191 14/37/191
f 86/5/192 115/59/192 114/61/192 62/36/192
f 110/60/193 115/59/193 86/5/193 61/7/193
f 117/81/194 116/81/194 25/83/194 75/83/194
f 117/81/195 75/83/195 76/84/195 118/82/195
f 76/84/196 35/91/197 118/82/198
f 81/13/199 120/15/199 119/94/199 35/91/199
f 36/95/200 121/77/200 120/15/200 81/13/200
f 121/77/201 36/95/201 28/12/201 122/78/201
f 82/97/202 123/79/202 122/80/202 28/98/202
f 25/83/203 116/81/203 123/79/203 82/97/203
f 128/99/204 127/50/204 23/51/204 24/100/204
f 126/99/205 125/52/169 124/50/168
f 26/92/206 126/99/206 22/100/206 5/93/206
f 26/92/207 103/101/207 125/52/169 126/99/205
f 27/102/208 52/45/73 125/52/75 103/101/208
f 27/27/209 4/26/209 12/48/209 52/47/209
f 127/50/210 124/50/210 21/51/210 23/51/210
f 22/100/211 126/99/211 128/99/211 24/100/211
f 126/99/212 124/50/212 127/50/212 128/99/212
f 25/83/17 35/84/17 76/84/17
f 119/94/213 77/76/213 118/82/198 35/91/197
f 31/3/214 34/1/214 37/1/214
f 77/76/215 74/76/215 73/75/215 78/75/215
f 157/1/216 160/3/217 197/2/218
f 160/3/217 198/4/219 197/2/218
f 190/5/220 165/7/221 191/6/222
f 165/7/221 134/8/223 191/6/222
f 135/3/224 154/9/225 203/4/226
f 154/9/225 204/10/227 203/4/226
f 191/6/228 134/8/229 192/2/230
f 134/8/229 138/1/231 192/2/230
f 186/11/17 185/13/17 132/12/17
f 134/14/232 165/16/233 1/15/234
f 165/16/233 13/17/235 1/15/234
f 138/18/236 134/14/237 2/19/238
f 134/14/237 1/15/239 2/19/238
f 135/20/240 138/18/241 3/21/242
f 138/18/241 2/19/243 3/21/242
f 10/22/244 154/23/245 3/21/246
f 154/23/245 135/20/247 3/21/246
f 207/24/248 131/27/248 4/26/248 17/25/248
f 136/28/249 153/30/250 6/29/36
f 153/30/250 9/31/38 6/29/36
f 136/28/251 6/29/251 7/33/251 137/32/251
f 137/32/252 7/33/252 8/35/252 133/34/252
f 166/36/253 133/34/254 14/37/255
f 133/34/254 8/35/256 14/37/255
f 138/1/257 141/1/258 192/2/259
f 141/1/258 193/2/260 192/2/259
f 137/32/261 142/32/262 136/28/263
f 142/32/262 143/28/264 136/28/263
f 202/4/265 144/3/266 203/4/267
f 144/3/266 135/3/268 203/4/267
f 135/3/269 144/3/269 141/1/269
f 141/1/270 145/1/270 194/2/270 193/2/270
f 142/32/271 146/32/271 147/28/271 143/28/271
f 201/4/272 148/3/272 144/3/272 202/4/272
f 144/3/273 148/3/274 141/1/275
f 148/3/274 145/1/276 141/1/275
f 145/1/277 149/1/277 195/2/277 194/2/277
f 146/32/278 150/32/278 151/28/278 147/28/278
f 200/4/279 152/3/279 148/3/279 201/4/279
f 152/3/280 149/1/280 145/1/280 148/3/280
f 184/38/281 155/41/281 11/40/281 16/39/281
f 183/42/282 156/45/282 206/44/282 205/43/282
f 183/46/283 15/49/283 12/48/283 156/47/283
f 228/50/284 21/51/284 11/40/284 155/41/284
f 156/45/285 229/52/286 206/44/287
f 161/1/288 157/1/289 196/2/290
f 157/1/289 197/2/291 196/2/290
f 163/28/292 162/32/293 159/28/294
f 162/32/293 158/32/295 159/28/294
f 198/4/296 160/3/297 199/4/298
f 160/3/297 164/3/299 199/4/298
f 164/3/300 160/3/301 161/1/302
f 160/3/301 157/1/303 161/1/302
f 195/2/304 149/1/305 196/2/306
f 149/1/305 161/1/307 196/2/306
f 151/28/308 150/32/309 163/28/310
f 150/32/309 162/32/311 163/28/310
f 200/4/312 199/4/313 152/3/314
f 199/4/313 164/3/315 152/3/314
f 152/3/316 164/3/317 149/1/318
f 164/3/317 161/1/319 149/1/318
f 167/53/320 215/56/320 214/55/320 168/54/320
f 168/57/321 214/60/321 219/59/321 189/58/321
f 218/61/322 217/64/322 170/63/322 169/62/322
f 172/65/323 171/66/323 167/53/323 168/54/323
f 188/67/324 172/68/324 168/57/324 189/58/324
f 169/62/325 170/63/325 174/70/325 173/69/325
f 175/71/326 171/66/326 172/65/326 176/72/326
f 172/68/327 188/67/327 187/74/327 176/73/327
f 173/69/328 174/70/328 178/76/328 177/75/328
f 176/72/329 226/78/329 225/77/329 175/71/329
f 227/79/330 226/80/330 176/73/330 187/74/330
f 182/75/331 181/76/331 222/82/331 221/81/331
f 129/83/17 179/83/17 180/84/17
f 177/75/332 182/75/332 221/81/332 220/81/332
f 208/85/333 18/86/333 15/49/333 183/46/333
f 208/87/334 183/42/334 205/43/334 209/88/334
f 184/38/335 16/39/335 19/90/335 210/89/335
f 186/11/17 139/91/17 185/13/17
f 177/75/336 220/81/336 227/79/336 187/74/336
f 188/67/337 173/69/337 177/75/337 187/74/337
f 173/69/338 188/67/338 189/58/338 169/62/338
f 189/58/339 219/59/339 218/61/339 169/62/339
f 133/34/340 166/36/340 190/5/340 191/6/340
f 137/32/341 133/34/341 191/6/341 192/2/341
f 193/2/342 142/32/343 192/2/344
f 142/32/343 137/32/345 192/2/344
f 146/32/346 142/32/346 193/2/346 194/2/346
f 150/32/347 146/32/347 194/2/347 195/2/347
f 196/2/348 162/32/349 195/2/350
f 162/32/349 150/32/351 195/2/350
f 197/2/352 158/32/353 196/2/354
f 158/32/353 162/32/355 196/2/354
f 197/2/356 198/4/357 158/32/358
f 198/4/357 159/28/359 158/32/358
f 163/28/360 159/28/361 199/4/362
f 159/28/361 198/4/363 199/4/362
f 151/28/364 163/28/365 200/4/366
f 163/28/365 199/4/367 200/4/366
f 151/28/368 200/4/368 201/4/368 147/28/368
f 147/28/369 201/4/369 202/4/369 143/28/369
f 136/28/370 143/28/371 203/4/372
f 143/28/371 202/4/265 203/4/372
f 204/10/373 153/30/374 203/4/375
f 153/30/374 136/28/376 203/4/375
f 205/43/377 184/38/377 210/89/377 209/88/377
f 155/41/378 184/38/378 205/43/378 206/44/378
f 155/41/379 206/44/379 229/52/380 228/50/381
f 207/24/382 17/25/382 5/93/382 130/92/382
f 208/85/383 154/23/383 10/22/383 18/86/383
f 208/87/384 209/88/384 204/10/384 154/9/384
f 153/30/385 204/10/385 209/88/385 210/89/385
f 210/89/386 19/90/175 9/31/175 153/30/386
f 213/25/387 170/63/387 217/64/387 216/25/387
f 213/25/388 212/25/388 174/70/388 170/63/388
f 178/76/389 211/25/389 224/15/389 223/94/389
f 212/25/390 211/25/390 178/76/390 174/70/390
f 211/25/391 212/25/391 171/66/391 175/71/391
f 212/25/392 213/25/392 167/53/392 171/66/392
f 167/53/393 213/25/393 216/25/393 215/56/393
f 140/95/17 132/12/17 185/13/17
f 224/15/394 211/25/394 175/71/394 225/77/394
f 181/76/395 178/76/395 223/94/395
f 129/96/17 139/91/17 186/11/17
f 13/17/396 165/16/397 215/56/398
f 165/16/397 214/55/399 215/56/398
f 20/25/400 13/17/400 215/56/400 216/25/400
f 14/37/401 20/25/401 216/25/401 217/64/401
f 166/36/402 14/37/402 217/64/402 218/61/402
f 190/5/403 166/36/403 218/61/403 219/59/403
f 214/60/404 165/7/404 190/5/404 219/59/404
f 221/81/405 179/83/405 129/83/405 220/81/405
f 221/81/406 222/82/406 180/84/406 179/83/406
f 180/84/407 222/82/408 139/91/409
f 185/13/410 139/91/410 223/94/410 224/15/410
f 140/95/411 185/13/411 224/15/411 225/77/411
f 225/77/412 226/78/412 132/12/412 140/95/412
f 186/97/413 132/98/413 226/80/413 227/79/413
f 129/83/414 186/97/414 227/79/414 220/81/414
f 232/99/415 24/100/415 23/51/415 231/50/415
f 230/99/416 228/50/381 229/52/380
f 130/92/417 5/93/417 22/100/417 230/99/417
f 130/92/418 230/99/416 229/52/380 207/101/418
f 131/102/419 207/101/419 229/52/286 156/45/285
f 131/27/420 156/47/420 12/48/420 4/26/420
f 231/50/421 23/51/421 21/51/421 228/50/421
f 22/100/422 24/100/422 232/99/422 230/99/422
f 230/99/423 232/99/423 231/50/423 228/50/423
f 129/83/17 180/84/17 139/84/17
f 223/94/424 139/91/409 222/82/408 181/76/424
f 135/3/425 141/1/425 138/1/425
f 181/76/426 182/75/426 177/75/426 178/76/426
